<svg width="141" height="141" fill="none" xmlns="http://www.w3.org/2000/svg"><g id="arrow-left 1"><g id="Group"><g id="Group_2"><path id="Vector" d="M50.853 30.25a.923.923 0 01.04-1.829 42.64 42.64 0 011.879-.165.923.923 0 01.12 1.841c-.599.04-1.198.093-1.798.16a1.02 1.02 0 01-.241-.008z" fill="#BA945E"/></g><g id="Group_3"><path id="Vector_2" d="M51.91 29.237a.918.918 0 01.858-.976.933.933 0 01.989.86.933.933 0 01-.859.976c-.075.001-.138.004-.21-.007a.93.93 0 01-.778-.853z" fill="#BA945E"/></g><g id="Group_4"><path id="Vector_3" d="M49.108 111.94a42.813 42.813 0 01-2.793-.527.91.91 0 01-.71-1.054l.008-.049a.925.925 0 011.102-.702c1.179.268 2.367.474 3.562.632l.036.006a.933.933 0 01.776 1.027.924.924 0 01-1.042.799 22.488 22.488 0 01-.939-.132zm4.623.447a.92.92 0 01-.775-.953.274.274 0 01.003-.099.92.92 0 01.942-.789c1.224.051 2.445.038 3.624-.018 0 0 .012.002.014-.01a.943.943 0 01.972.883c.003.063-.007.123-.016.184a.91.91 0 01-.865.776 38.265 38.265 0 01-3.788.03c-.036-.005-.074.001-.11-.004zm-10.94-1.936a.606.606 0 01-.144-.034l-.036-.006c-.01-.014-.023-.016-.035-.018a.92.92 0 01-.54-.456.965.965 0 01-.054-.705.92.92 0 011.161-.593l.037.005c.01.014.022.016.034.018l.013.002a.91.91 0 01.604 1.013l-.023.146a.925.925 0 01-1.017.628zm18.353 1.552a.922.922 0 01-.777-.778.934.934 0 01.795-1.048 40.447 40.447 0 003.56-.663c.49-.111 1.002.204 1.116.681.03.129.023.253.005.374a.907.907 0 01-.698.74c-1.226.285-2.48.516-3.728.698a.93.93 0 01-.273-.004zm7.227-1.694a.912.912 0 01-.738-.623.848.848 0 01-.038-.404.907.907 0 01.625-.75 44.26 44.26 0 003.397-1.297.926.926 0 011.21.471c.062.159.086.324.073.496a.926.926 0 01-.545.713c-1.148.509-2.35.96-3.556 1.36a.795.795 0 01-.428.034zm6.812-2.964a.899.899 0 01-.675-.464.883.883 0 01-.099-.575.881.881 0 01.464-.676 41.328 41.328 0 003.102-1.889c.403-.275 1.007-.157 1.28.258a.864.864 0 01.15.645.933.933 0 01-.395.624 40.286 40.286 0 01-3.252 1.978.903.903 0 01-.575.099zm6.146-4.136a.907.907 0 01-.571-.337.896.896 0 01.135-1.286 40.421 40.421 0 002.696-2.412l.014-.01a.946.946 0 011.304.013.95.95 0 01.251.798.876.876 0 01-.264.507 39.401 39.401 0 01-2.838 2.527.906.906 0 01-.727.2zm5.322-5.184a.875.875 0 01-.466-.208.928.928 0 01-.1-1.297 40.23 40.23 0 002.243-2.867c.286-.404.873-.5 1.29-.213a.92.92 0 01.372.903.9.9 0 01-.16.386 47.776 47.776 0 01-2.335 2.99.928.928 0 01-.844.306zm4.308-6.035a.824.824 0 01-.329-.125.906.906 0 01-.445-.914.873.873 0 01.115-.343 37.648 37.648 0 001.686-3.214.956.956 0 011.238-.445.91.91 0 01.512.962c-.013.085-.04.18-.077.262a41.282 41.282 0 01-1.771 3.362.904.904 0 01-.929.455zm3.157-6.721c-.061-.01-.12-.031-.179-.052a.91.91 0 01-.594-1 .93.93 0 01.04-.18c.408-1.12.775-2.296 1.09-3.467a.906.906 0 011.12-.65.92.92 0 01.69 1.027c-.006.036-.023.07-.027.095a39.504 39.504 0 01-1.14 3.621.931.931 0 01-1 .606zm1.894-7.176a.927.927 0 01-.768-1.076l.093-.608c.152-.997.268-2 .346-2.995l.015-.098a.918.918 0 01.973-.747.904.904 0 01.846.976c.012.002.01.014.01.014l-.009.06a42.84 42.84 0 01-.358 3.07l-.096.632a.93.93 0 01-1.052.772zm.561-7.405a.922.922 0 01-.77-.902 44.581 44.581 0 00-.216-3.63.719.719 0 01.01-.234.896.896 0 01.816-.771.92.92 0 011.007.814 40.8 40.8 0 01.216 3.79.52.52 0 01-.008.136.909.909 0 01-.895.809c-.049-.008-.111-.005-.16-.012zm-.761-7.384a.925.925 0 01-.758-.738 38.411 38.411 0 00-.854-3.527.963.963 0 01-.024-.415.908.908 0 01.647-.734.942.942 0 011.148.636c.35 1.21.657 2.452.892 3.683a.963.963 0 010 .323.919.919 0 01-.726.76.925.925 0 01-.325.012zm-2.057-7.133a.914.914 0 01-.721-.57 43.21 43.21 0 00-1.47-3.324.869.869 0 01-.092-.537.9.9 0 01.492-.696c.444-.218 1.025-.03 1.243.414a42.56 42.56 0 011.547 3.472.9.9 0 01.049.493.928.928 0 01-.58.695.843.843 0 01-.468.053zm-3.314-6.642a.944.944 0 01-.656-.424 35.575 35.575 0 00-2.044-2.988.99.99 0 01-.181-.687.973.973 0 01.368-.616.952.952 0 011.29.185 42.378 42.378 0 012.133 3.139.85.85 0 01.131.605.91.91 0 01-.425.669.936.936 0 01-.616.117zm-4.469-5.922a.903.903 0 01-.54-.294 41.345 41.345 0 00-2.542-2.58l-.012-.001a.93.93 0 01-.284-.828.821.821 0 01.235-.474c.329-.36.943-.39 1.303-.062a45.54 45.54 0 012.671 2.711c.18.202.263.476.222.743a.91.91 0 01-.295.552.892.892 0 01-.758.233zm-5.45-5.04a.921.921 0 01-.42-.189 40.1 40.1 0 00-2.977-2.086.907.907 0 01-.405-.933.925.925 0 01.127-.34c.261-.409.854-.542 1.274-.279a41.51 41.51 0 013.1 2.18c.28.204.403.546.352.874a.91.91 0 01-.176.422.932.932 0 01-.875.35zm-6.258-3.994a1.208 1.208 0 01-.286-.081 36.777 36.777 0 00-3.3-1.525.92.92 0 01-.56-.982.796.796 0 01.06-.227c.182-.458.727-.685 1.197-.501a45.91 45.91 0 013.453 1.586.927.927 0 01.484.982.663.663 0 01-.09.26.912.912 0 01-.958.488zm-6.876-2.794c-.049-.008-.085-.013-.132-.033a39.116 39.116 0 00-3.52-.9.929.929 0 01-.724-1.044l.007-.048a.938.938 0 011.093-.716c1.229.262 2.462.576 3.687.95a.913.913 0 01.608 1.15.926.926 0 01-1.02.64zm-10.978-1.767a.908.908 0 01-.777-.94.915.915 0 01.934-.903c1.252.03 2.52.125 3.791.27l.037.005c.486.074.83.513.778 1.015l-.008.049a.906.906 0 01-.999.755c-.002.012-.014.01-.014.01l-.036-.005-.024-.004a42.788 42.788 0 00-3.559-.246.433.433 0 01-.123-.006z" fill="#BA945E"/></g><g id="Group_5"><path id="Vector_4" d="M42.719 110.429a.819.819 0 01-.146-.034 43.362 43.362 0 01-1.78-.62.923.923 0 11.647-1.729c.562.21 1.13.408 1.702.594a.92.92 0 01.594 1.161.924.924 0 01-1.017.628z" fill="#BA945E"/></g></g><g id="Group_6"><path id="Vector_5" d="M55.942 35.256a.915.915 0 01-.386-.153l-6.923-4.805a.922.922 0 01-.134-1.402l5.743-5.893a.922.922 0 111.322 1.288l-4.983 5.113 6.028 4.184a.922.922 0 01-.667 1.668z" fill="#BA945E"/></g></g></svg>