<svg width="24" height="24" fill="none" xmlns="http://www.w3.org/2000/svg"><g id="check (1)" clip-path="url(#clip0_1_81)"><path id="Vector" d="M0 12c0-2.175.533-4.182 1.6-6.021a11.963 11.963 0 014.379-4.358A11.743 11.743 0 0112 0c2.175 0 4.183.54 6.021 1.621A11.756 11.756 0 0122.379 6C23.459 7.839 24 9.839 24 12s-.54 4.168-1.621 6.021A11.914 11.914 0 0118 22.4c-1.839 1.067-3.839 1.6-6 1.6s-4.168-.533-6.021-1.6A12.128 12.128 0 011.6 18.021 11.861 11.861 0 010 12zm8.505 3.6l1.706 1.705 1.705-1.705 7.2-7.2-1.705-1.705-7.2 7.2-3.6-3.6L4.905 12l3.6 3.6z" fill="#17868D"/></g><defs><clipPath id="clip0_1_81"><path fill="#fff" d="M0 0h24v24H0z"/></clipPath></defs></svg>