<svg width="199" height="51" fill="none" xmlns="http://www.w3.org/2000/svg"><g id="logo" clip-path="url(#clip0_1_49)"><g id="Слой 1"><g id="Слой_1"><path id="Union" fill-rule="evenodd" clip-rule="evenodd" d="M.092 19.95h57.519V0L.092 19.95zm101.35 7.446v-4.254h18.001V33.78h-12.602v-4.254h9v-2.13h-14.399zm0 12.768V29.526h3.601v10.638h-3.601zM81.637 23.148v2.13l3.595 4.254 2.694-3.18-2.694-3.204h-3.595zm0 14.892v2.13h3.595l6.307-7.452 6.295 7.452h1.804v-4.254l-5.405-6.384 5.405-6.384h-5.405L81.63 38.046l.006-.006zM67.23 33.78h10.8v-4.254H67.231v4.254zm-5.399 6.39V23.148h18.001v4.254h-14.4v8.514h14.4v4.254h-18zm-42.027-6.312V23.22h12.602v4.254h-9v6.384h-3.602zm0 6.384v-4.26H34.21V23.214h3.595v17.028h-18zM0 40.248h3.601V29.61H0v10.638zm18.001-17.022V33.87h-5.399l5.4 6.384h-5.4L5.399 31.74v-2.13h9v-2.13H0v-4.254h18.001zm27.008-.006H57.61v4.254H45.009V23.22zm-5.405 0v10.638H54.01v2.13H39.604v4.254H57.61V29.604H43.205V23.22h-3.601zm85.238 16.944h-3.601V29.526h3.601v10.638zm14.4-6.384V23.142h-18.001v4.254h14.399v2.13h-9v2.13l7.203 8.514h5.399l-5.399-6.384h5.399v-.006zm7.209 0h10.798v-4.254h-10.798v4.254zm12.602 2.13v4.26h-18.001V23.142h18.001v4.254h-14.4v8.514h14.4zm19.805 4.254V29.526h-14.406v-6.384h-3.595V33.78h14.399v2.13h-14.399v4.254h18.001zm0-12.768v-4.254h-12.602v4.254h12.602zm19.805 2.13v10.638h-18.002V35.91h14.4v-2.13h-14.4V23.142h3.602v6.384h14.4zm0-6.384v4.254h-12.602v-4.254h12.602zm-.166-3.192H61.832V0l136.665 19.95zM57.611 51v-7.998H.454L57.611 51zm4.221-7.998H199L61.832 51v-7.998z" fill="url(#paint0_linear_1_49)"/></g></g></g><defs><linearGradient id="paint0_linear_1_49" x1=".075" y1="25.5" x2="199.011" y2="25.5" gradientUnits="userSpaceOnUse"><stop stop-color="#9F734C"/><stop offset=".13" stop-color="#BA945E"/><stop offset=".28" stop-color="#D1B16E"/><stop offset=".42" stop-color="#E2C579"/><stop offset=".56" stop-color="#ECD180"/><stop offset=".7" stop-color="#F0D683"/><stop offset=".75" stop-color="#E7CC7D"/><stop offset=".84" stop-color="#D2B16E"/><stop offset=".95" stop-color="#AF8757"/><stop offset="1" stop-color="#9F734C"/></linearGradient><clipPath id="clip0_1_49"><path fill="#fff" d="M0 0h199v51H0z"/></clipPath></defs></svg>