<svg width="40" height="40" fill="none" xmlns="http://www.w3.org/2000/svg"><g id="Tg"><g id="OBJECTS"><g id="Group"><g id="Group_2"><path id="Vector" d="M31.881 0H8.12A8.119 8.119 0 000 8.119V31.88A8.119 8.119 0 008.119 40H31.88A8.119 8.119 0 0040 31.881V8.12A8.119 8.119 0 0031.881 0z" fill="url(#paint0_radial_1_135)"/><path id="icon" d="M27.707 13.434l-.295.104-16.004 5.591a.536.536 0 00-.28.198.51.51 0 00.03.636.54.54 0 00.297.172l4.143 1.1.772 2.2.773 2.2a.714.714 0 00.207.278.743.743 0 00.67.145.743.743 0 00.31-.167l2.14-1.961 4.202 2.764c.514.339 1.246.087 1.378-.472l2.783-11.927c.136-.59-.505-1.076-1.126-.861zm-2.043 2.647l-7.231 5.732-.34.27a.354.354 0 00-.136.233l-.077.61-.209 1.712a.077.077 0 01-.019.058.083.083 0 01-.115.009.078.078 0 01-.028-.054l-.588-1.711-.607-1.752a.345.345 0 01.01-.24.36.36 0 01.165-.18l7.524-4.182 1.416-.786c.206-.116.416.137.235.281z" fill="url(#paint1_linear_1_135)"/><path id="Vector_2" d="M37.228 31.88V8.12a5.347 5.347 0 00-5.347-5.347H8.12A5.347 5.347 0 002.773 8.12v23.76a5.347 5.347 0 005.347 5.346h23.76a5.347 5.347 0 005.347-5.346z" stroke="url(#paint2_linear_1_135)" stroke-miterlimit="10"/></g></g></g></g><defs><linearGradient id="paint1_linear_1_135" x1="11.028" y1="20.118" x2="28.847" y2="20.118" gradientUnits="userSpaceOnUse"><stop stop-color="#9F734C"/><stop offset=".13" stop-color="#BA945E"/><stop offset=".28" stop-color="#D1B16E"/><stop offset=".42" stop-color="#E2C579"/><stop offset=".56" stop-color="#ECD180"/><stop offset=".7" stop-color="#F0D683"/><stop offset=".75" stop-color="#E7CC7D"/><stop offset=".84" stop-color="#D2B16E"/><stop offset=".95" stop-color="#AF8757"/><stop offset="1" stop-color="#9F734C"/></linearGradient><linearGradient id="paint2_linear_1_135" x1="2.574" y1="20" x2="37.426" y2="20" gradientUnits="userSpaceOnUse"><stop stop-color="#9F734C"/><stop offset=".13" stop-color="#BA945E"/><stop offset=".28" stop-color="#D1B16E"/><stop offset=".42" stop-color="#E2C579"/><stop offset=".56" stop-color="#ECD180"/><stop offset=".7" stop-color="#F0D683"/><stop offset=".75" stop-color="#E7CC7D"/><stop offset=".84" stop-color="#D2B16E"/><stop offset=".95" stop-color="#AF8757"/><stop offset="1" stop-color="#9F734C"/></linearGradient><radialGradient id="paint0_radial_1_135" cx="0" cy="0" r="1" gradientUnits="userSpaceOnUse" gradientTransform="translate(4.158 3.366) scale(47.7505)"><stop stop-color="#3D3D3D"/><stop offset="1" stop-color="#141414"/></radialGradient></defs></svg>