<svg width="40" height="40" fill="none" xmlns="http://www.w3.org/2000/svg"><g id="you"><g id="OBJECTS"><g id="Group"><g id="Group_2"><path id="Vector" d="M31.881 0H8.12A8.119 8.119 0 000 8.119V31.88A8.119 8.119 0 008.119 40H31.88A8.119 8.119 0 0040 31.881V8.12A8.119 8.119 0 0031.881 0z" fill="url(#paint0_radial_1_128)"/><path id="Vector_2" d="M37.228 31.88V8.12a5.347 5.347 0 00-5.347-5.347H8.12A5.347 5.347 0 002.773 8.12v23.76a5.347 5.347 0 005.347 5.346h23.76a5.347 5.347 0 005.347-5.346z" stroke="url(#paint1_linear_1_128)" stroke-miterlimit="10"/></g><path id="Vector_3" d="M28.907 14.954a1.642 1.642 0 00-1.497-1.457 100.695 100.695 0 00-14.828 0 1.647 1.647 0 00-1.497 1.457 42.58 42.58 0 000 10.091c.091.78.713 1.398 1.497 1.458 4.943.364 9.885.364 14.828 0a1.647 1.647 0 001.497-1.458c.4-3.362.4-6.728 0-10.09zm-5.988 4.986l-4.456 2.551a.246.246 0 01-.368-.214v-5.105c0-.186.202-.305.368-.214l4.456 2.55a.245.245 0 010 .425v.008z" fill="url(#paint2_linear_1_128)"/></g></g></g><defs><linearGradient id="paint1_linear_1_128" x1="2.574" y1="20" x2="37.426" y2="20" gradientUnits="userSpaceOnUse"><stop stop-color="#9F734C"/><stop offset=".13" stop-color="#BA945E"/><stop offset=".28" stop-color="#D1B16E"/><stop offset=".42" stop-color="#E2C579"/><stop offset=".56" stop-color="#ECD180"/><stop offset=".7" stop-color="#F0D683"/><stop offset=".75" stop-color="#E7CC7D"/><stop offset=".84" stop-color="#D2B16E"/><stop offset=".95" stop-color="#AF8757"/><stop offset="1" stop-color="#9F734C"/></linearGradient><linearGradient id="paint2_linear_1_128" x1="10.792" y1="20" x2="29.208" y2="20" gradientUnits="userSpaceOnUse"><stop stop-color="#9F734C"/><stop offset=".13" stop-color="#BA945E"/><stop offset=".28" stop-color="#D1B16E"/><stop offset=".42" stop-color="#E2C579"/><stop offset=".56" stop-color="#ECD180"/><stop offset=".7" stop-color="#F0D683"/><stop offset=".75" stop-color="#E7CC7D"/><stop offset=".84" stop-color="#D2B16E"/><stop offset=".95" stop-color="#AF8757"/><stop offset="1" stop-color="#9F734C"/></linearGradient><radialGradient id="paint0_radial_1_128" cx="0" cy="0" r="1" gradientUnits="userSpaceOnUse" gradientTransform="translate(4.158 3.366) scale(47.7505)"><stop stop-color="#3D3D3D"/><stop offset="1" stop-color="#141414"/></radialGradient></defs></svg>