<svg width="68" height="68" fill="none" xmlns="http://www.w3.org/2000/svg"><g clip-path="url(#clip0_1_152)"><path d="M67.5 34c0 18.502-14.998 33.5-33.5 33.5C15.498 67.5.5 52.502.5 34 .5 15.498 15.498.5 34 .5 52.502.5 67.5 15.498 67.5 34z" fill="url(#paint0_linear_1_152)" stroke="#F0D683"/><path d="M45.126 21.21H22.874a6.77 6.77 0 00-6.769 6.773v12.034a6.769 6.769 0 006.769 6.773h22.252a6.767 6.767 0 006.769-6.773V27.983a6.768 6.768 0 00-6.769-6.773zM29.285 39.485v-10.97L38.715 34l-9.43 5.485z" fill="#222"/></g><defs><linearGradient id="paint0_linear_1_152" x1="34" y1="0" x2="34" y2="68" gradientUnits="userSpaceOnUse"><stop stop-color="#DEC173"/><stop offset="1" stop-color="#A77E42"/></linearGradient><clipPath id="clip0_1_152"><path fill="#fff" d="M0 0h68v68H0z"/></clipPath></defs></svg>